<svg width="32" height="32" viewBox="0 0 32 32" fill="none" xmlns="http://www.w3.org/2000/svg">
<g clip-path="url(#clip0_2_2)">
<mask id="mask0_2_2" style="mask-type:alpha" maskUnits="userSpaceOnUse" x="1" y="5" width="15" height="22">
<path d="M14.6667 6.66667L8 12H2.66667V20H8L14.6667 25.3333V6.66667Z" stroke="#C0C0C0" stroke-width="2" stroke-linecap="round" stroke-linejoin="round"/>
</mask>
<g mask="url(#mask0_2_2)">
<path d="M26.7493 -1.062L11.8956 -15L-15 13.6626L-0.146322 27.6006L26.7493 -1.062Z" fill="#C4C4C4"/>
<path d="M47.175 13.6548L32.3213 -0.283159L5.42567 28.3794L20.2793 42.3174L47.175 13.6548Z" fill="#C4C4C4"/>
</g>
<mask id="mask1_2_2" style="mask-type:alpha" maskUnits="userSpaceOnUse" x="19" y="5" width="12" height="22">
<path fill-rule="evenodd" clip-rule="evenodd" d="M26.2259 5.97228L25.4267 6.57333C26.2259 5.97228 26.2257 5.9721 26.2259 5.97228L26.2275 5.97439L26.2305 5.97848L26.241 5.9925L26.2786 6.04346C26.3108 6.0874 26.3571 6.15102 26.4154 6.23267C26.532 6.3959 26.6969 6.63148 26.8941 6.926C26.9361 6.98878 26.9797 7.05429 27.0245 7.1224C28.0565 8.65058 29.0094 10.2629 29.6243 12.0141C30.1316 13.314 30.5 14.7013 30.5 16C30.5 17.2987 30.1316 18.686 29.6243 19.9859C29.0094 21.7371 28.0565 23.3494 27.0245 24.8776C26.9797 24.9457 26.9361 25.0112 26.8941 25.074C26.6969 25.3685 26.532 25.6041 26.4154 25.7673C26.3571 25.849 26.3108 25.9126 26.2786 25.9565L26.241 26.0075L26.2305 26.0215L26.2275 26.0256L26.2265 26.0269C26.2263 26.0271 26.2259 26.0277 25.4267 25.4267L26.2259 26.0277C25.8973 26.4647 25.2786 26.5567 24.837 26.2343C24.3955 25.912 24.2946 25.2947 24.6107 24.8486C24.8801 24.4683 25.1423 24.0912 25.3946 23.7161C25.7403 23.1885 26.164 22.5063 26.5867 21.7361C27.0167 20.9526 27.4279 20.1096 27.7581 19.266C28.1213 18.2156 28.3305 17.1368 28.3305 16C28.3305 14.8632 28.1213 13.7844 27.7581 12.734C27.4279 11.8904 27.0167 11.0474 26.5867 10.2639C26.164 9.49372 25.7403 8.81144 25.3946 8.2839C25.1423 7.90876 24.8801 7.53174 24.6107 7.15141C24.2946 6.70528 24.3955 6.08802 24.837 5.76565C25.2786 5.44329 25.8973 5.53532 26.2259 5.97228ZM20.013 10.5728C20.4036 10.1823 21.0367 10.1824 21.4272 10.573C22.8645 12.0107 23.6719 13.9604 23.6719 15.9933C23.6719 18.0263 22.8645 19.976 21.4272 21.4137C21.0367 21.8043 20.4036 21.8043 20.013 21.4139C19.6224 21.0234 19.6223 20.3903 20.0128 19.9997C21.0751 18.937 21.6719 17.4959 21.6719 15.9933C21.6719 14.4907 21.0751 13.0497 20.0128 11.987C19.6223 11.5964 19.6224 10.9633 20.013 10.5728Z" fill="#C0C0C0"/>
</mask>
<g mask="url(#mask1_2_2)">
<path d="M42.0606 13.3054L30.2115 2.18675L3.31586 30.8493L15.165 41.968L42.0606 13.3054Z" fill="#C4C4C4"/>
</g>
<path d="M26.8956 0L29.0833 2.05282L2.18768 30.7154L-1.81242e-06 28.6626L26.8956 0Z" fill="#C4C4C4"/>
</g>
<defs>
<clipPath id="clip0_2_2">
<rect width="32" height="32" fill="white"/>
</clipPath>
</defs>
</svg>
